<?xml version="1.0" encoding="UTF-8"?>
<svg id="Layer_2" data-name="Layer 2" xmlns="http://www.w3.org/2000/svg" viewBox="0 0 94.95 106.9">
  <defs>
    <style>
      .cls-1 {
        fill: #231f20;
        stroke-width: 0px;
      }
    </style>
  </defs>
  <g id="Layer_1-2" data-name="Layer 1">
    <g>
      <path class="cls-1" d="m48.73,0c2.12.59,3.62,2.06,5.13,3.56,3.69,3.69,7.43,7.34,11.18,10.96.39.38,1.07.65,1.62.65,4.28.05,8.56.02,12.84.03,4.45.01,7.23,2.79,7.25,7.22,0,1.04.02,2.09,0,3.13-.02,1.02-.59,1.64-1.48,1.67-.91.04-1.59-.61-1.63-1.65-.04-1.11,0-2.23-.01-3.34-.02-2.44-1.46-3.89-3.9-3.9-8.45-.01-16.91,0-25.36,0-12.87,0-25.75,0-38.62,0-3.09,0-4.39,1.29-4.39,4.35,0,8.46,0,16.91-.01,25.37,0,.68.19,1.16.68,1.64,9.05,9.01,18.09,18.03,27.11,27.07.52.52.89.57,1.51.21,1.22-.73,2.48-1.41,3.74-2.06,2.02-1.04,4.08-1.08,6.11-.07,1.31.65,2.59,1.34,3.84,2.1.66.4,1.05.33,1.59-.21,3.96-4.01,7.97-7.98,11.95-11.96,5.02-5.01,10.04-10.03,15.08-15.03.51-.51.71-1.02.71-1.73-.03-4.94-.02-9.88-.01-14.82,0-.35-.03-.71.04-1.04.18-.85.72-1.36,1.61-1.31.88.05,1.41.57,1.46,1.47.04.9-.05,1.82.04,2.71.05.5.26,1.08.59,1.43,1.72,1.77,3.49,3.5,5.27,5.21,1.57,1.51,2.31,3.32,2.31,5.5-.02,17.57,0,35.14-.02,52.71,0,4.25-2.84,7.04-7.09,7.04-5.29,0-10.58,0-15.87,0-.31,0-.64.03-.93-.05-.79-.21-1.26-.73-1.23-1.58.03-.8.5-1.28,1.25-1.46.33-.08.69-.04,1.04-.04,5.29,0,10.58,0,15.87,0,1.91,0,3.1-.87,3.7-2.71-.52-.29-1.05-.6-1.59-.9-13.34-7.33-26.69-14.65-40-22.03-1.81-1-3.35-1.01-5.17,0-13.5,7.48-27.03,14.89-40.55,22.32-.33.18-.66.38-.98.56.25,1.53,1.47,2.61,3.08,2.74.41.03.83.02,1.25.02,18.65,0,37.3,0,55.95,0,1.68,0,2.43.5,2.41,1.6-.02,1.06-.75,1.53-2.37,1.53-18.79,0-37.58,0-56.37,0-4.54,0-7.3-2.73-7.31-7.25,0-9.19,0-18.37,0-27.56,0-.31,0-.63.05-.94.14-.73.61-1.16,1.36-1.22.79-.06,1.37.28,1.59,1.05.12.42.12.89.13,1.34,0,7.93,0,15.87,0,23.8,0,.4,0,.81,0,1.41,11.32-6.22,22.46-12.34,33.44-18.37-11.05-11.12-22.11-22.25-33.29-33.49-.05.61-.14,1.17-.14,1.73-.01,5.46,0,10.93,0,16.39,0,1.67-.52,2.44-1.63,2.4-1.06-.03-1.5-.74-1.5-2.4,0-5.46.04-10.93-.02-16.39-.02-2.38.76-4.32,2.5-5.94,1.73-1.61,3.41-3.28,5.05-4.99.36-.37.62-1,.63-1.52.05-4.17.02-8.35.03-12.53,0-4.42,2.8-7.21,7.25-7.22,4.24-.01,8.49-.02,12.73.01.75,0,1.29-.2,1.83-.74,3.7-3.68,7.46-7.31,11.15-10.99,1.48-1.48,2.98-2.9,5.06-3.49h2.51Zm42.94,45.62c-11.19,11.26-22.26,22.39-33.32,33.52,10.99,6.04,22.14,12.16,33.32,18.3v-51.82ZM34.32,15.1h26.83c-3.91-3.82-7.63-7.52-11.44-11.13-1.37-1.29-3.32-1.13-4.72.19-1.22,1.14-2.42,2.3-3.58,3.5-2.41,2.5-4.8,5.02-7.09,7.43Zm-26.17,30.68v-5.19c-.86.86-1.72,1.72-2.55,2.55.76.78,1.58,1.63,2.55,2.64Zm78.66-5.4v5.15c.89-.84,1.76-1.68,2.59-2.48-.82-.85-1.65-1.71-2.59-2.68Z"/>
      <path class="cls-1" d="m51.39,49.85c-3.56,2.44-6.37,2.51-8.95.16-.68-.62-1.31-1.37-1.75-2.18-1.54-2.81-1.76-5.77-.52-8.74,1.81-4.34,6.01-5.76,10.6-3.6.04-.28.07-.53.13-.79.2-.92.84-1.43,1.71-1.32.89.11,1.36.66,1.37,1.55.02,1.63,0,3.27,0,4.91,0,2.4-.02,4.8-.02,7.2,0,2.08,1.44,2.96,3.19,1.81.79-.51,1.48-1.4,1.86-2.27,3.4-7.91-2.6-14.55-8.69-15.89-6.9-1.52-13.96,3.11-15.15,10-1.26,7.3,3.62,13.98,10.85,14.88.38.05.76.09,1.14.13,1.04.13,1.66.79,1.57,1.7-.09.9-.82,1.47-1.86,1.41-2.5-.15-4.86-.81-7.05-2.04-6.1-3.45-9.17-10.42-7.6-17.26,1.53-6.69,7.41-11.77,14.07-12.18,7.3-.44,13.67,3.62,16.09,10.31,1.41,3.91.86,7.69-1.03,11.28-1.08,2.06-2.87,3.26-5.24,3.49-2.15.21-3.67-.78-4.73-2.57Zm-.44-7.06c-.19-.88-.29-1.78-.59-2.62-.48-1.34-1.34-2.36-2.85-2.6-1.6-.26-2.85.41-3.82,1.64-1.77,2.27-1.49,6.25.57,8.26,1.63,1.6,3.73,1.5,5.17-.28,1.02-1.27,1.4-2.77,1.52-4.4Z"/>
    </g>
  </g>
</svg>